<!-- icon666.com - MILLIONS vector ICONS FREE --><svg version="1.1" id="Capa_1" xmlns="http://www.w3.org/2000/svg" xmlns:xlink="http://www.w3.org/1999/xlink" x="0px" y="0px" viewBox="0 0 512 512" style="enable-background:new 0 0 512 512;" xml:space="preserve"><circle style="fill: rgb(89, 78, 221);" cx="256" cy="256" r="256" fill="#006EF5"></circle><path style="fill: rgb(60, 52, 157);" d="M511.963,258.937l-130.08-130.163c-4.169-4.135-8.547-8.075-13.127-11.795 C337.012,91.198,296.967,77,255.998,77s-81.014,14.198-112.758,39.979c-27.996,22.737-48.559,53.595-58.796,87.874h-23.45 l33.902,52.797l153.093,154.758c-8.91-0.463-17.666-1.694-26.195-3.633L103.105,290.1l-21.843,4.849 c7.706,34.717,25.911,66.604,51.767,91.099l125.915,125.915C397.991,510.393,510.397,397.984,511.963,258.937z" fill="#00459F"></path><path style="fill: rgb(245, 221, 102);" d="M322.362,268.864c-5.486-7.185-12.944-12.169-22.366-14.95c7.724-3.397,13.595-8.612,17.615-15.646 c4.017-7.03,6.026-14.563,6.026-22.6c0-5.099-0.889-10.159-2.665-15.182c-1.779-5.02-4.289-9.504-7.533-13.444 s-7.184-7.145-11.822-9.619c-4.126-2.199-8.684-3.415-13.667-3.657V149.45h-23.146v24.264h-17.897V149.45h-23.146v24.264h-25.755 v164.573h25.755v24.264h23.146v-24.264h17.897v24.264h23.146v-24.943c3.467-0.464,6.826-1.163,10.076-2.102 c6.408-1.854,12.052-4.556,16.92-8.113c4.868-3.553,8.691-7.957,11.473-13.212c2.782-5.252,4.172-11.358,4.172-18.312 C330.59,285.054,327.845,276.05,322.362,268.864z M229.993,201.065h44.04c5.1,0,9.389,1.854,12.866,5.563 c3.477,3.708,5.214,8.732,5.214,15.067c0,6.49-1.895,11.589-5.68,15.298c-3.787,3.708-8.384,5.563-13.792,5.563h-42.649v-41.491 H229.993z M296.749,298.186c-1.083,2.63-2.549,4.908-4.402,6.838c-1.856,1.934-4.056,3.441-6.608,4.52 c-2.549,1.083-5.294,1.622-8.228,1.622h-47.517v-43.345h49.14c2.782,0,5.331,0.58,7.649,1.739c2.316,1.159,4.325,2.745,6.026,4.752 c1.699,2.01,3.051,4.368,4.056,7.07c1.003,2.705,1.507,5.526,1.507,8.46C298.372,292.779,297.829,295.56,296.749,298.186z" fill="#FFE047"></path><path style="" d="M322.36,268.86c-5.48-7.18-12.94-12.16-22.36-14.95c7.72-3.39,13.59-8.61,17.61-15.64 s6.03-14.57,6.03-22.6c0-5.1-0.89-10.16-2.67-15.18c-1.78-5.02-4.29-9.51-7.53-13.45c-3.25-3.94-7.19-7.14-11.82-9.62 c-4.13-2.2-8.69-3.41-13.67-3.66v-24.31H264.8v24.26H256v27.35h18.03c5.1,0,9.39,1.86,12.87,5.57c3.48,3.71,5.21,8.73,5.21,15.06 c0,6.49-1.89,11.59-5.68,15.3c-3.78,3.71-8.38,5.57-13.79,5.57H256v25.26h23.13c2.79,0,5.33,0.58,7.65,1.74s4.33,2.75,6.03,4.75 c1.7,2.01,3.05,4.37,4.05,7.07c1.01,2.71,1.51,5.53,1.51,8.46c0,2.94-0.54,5.72-1.62,8.35s-2.55,4.9-4.4,6.83 c-1.86,1.94-4.06,3.45-6.61,4.52c-2.55,1.09-5.3,1.63-8.23,1.63H256v27.12h8.8v24.26h23.15v-24.94c3.47-0.47,6.83-1.17,10.08-2.11 c6.4-1.85,12.05-4.55,16.92-8.11c4.86-3.55,8.69-7.95,11.47-13.21c2.78-5.25,4.17-11.36,4.17-18.31 C330.59,285.05,327.84,276.05,322.36,268.86z" fill="#FFAA20"></path><path style="" d="M94.896,257.651l33.902-52.797h-20.853c21.527-62.048,81.192-105.478,148.054-105.478 c72.832,0,137.132,51.529,152.892,122.525l21.843-4.849c-8.685-39.127-30.696-74.666-61.977-100.072 C337.012,91.198,296.967,77,255.998,77s-81.014,14.198-112.758,39.979c-27.996,22.737-48.559,53.595-58.796,87.874h-23.45 L94.896,257.651z" fill="#FFFFFF"></path><path style="fill: rgb(168, 164, 229);" d="M430.736,217.047l-21.846,4.851c-15.764-70.99-80.062-122.523-152.892-122.523V77 c40.967,0,81.018,14.198,112.76,39.98C400.032,142.386,422.051,177.921,430.736,217.047z" fill="#00E8F2"></path><path style="" d="M451.002,307.147L417.1,254.349l-33.901,52.797h20.853 c-21.527,62.048-81.192,105.478-148.054,105.478c-72.832,0-137.132-51.529-152.893-122.525l-21.843,4.849 c8.685,39.127,30.696,74.666,61.977,100.072c31.745,25.782,71.79,39.98,112.759,39.98s81.014-14.198,112.758-39.979 c27.996-22.737,48.559-53.595,58.796-87.874H451.002z" fill="#FFFFFF"></path><path style="fill: rgb(168, 164, 229);" d="M451.006,307.147h-23.453c-10.242,34.274-30.796,65.132-58.795,87.873 C337.016,420.802,296.964,435,255.998,435v-22.375c66.861,0,126.53-43.428,148.051-105.478H383.2l33.898-52.795L451.006,307.147z" fill="#00E8F2"></path></svg>