<svg xmlns="http://www.w3.org/2000/svg" viewBox="0 0 512 512" style="enable-background:new 0 0 512 512" xml:space="preserve"><circle style="fill:#594edd" cx="256" cy="256" r="256" fill="#006EF5"/><path style="fill:#3c349d" d="m511.963 258.937-130.08-130.163a178.058 178.058 0 0 0-13.127-11.795C337.012 91.198 296.967 77 255.998 77s-81.014 14.198-112.758 39.979c-27.996 22.737-48.559 53.595-58.796 87.874h-23.45l33.902 52.797 153.093 154.758a154.225 154.225 0 0 1-26.195-3.633L103.105 290.1l-21.843 4.849c7.706 34.717 25.911 66.604 51.767 91.099l125.915 125.915c139.047-1.57 251.453-113.979 253.019-253.026z" fill="#00459F"/><path style="fill:#f5dd66" d="M322.362 268.864c-5.486-7.185-12.944-12.169-22.366-14.95 7.724-3.397 13.595-8.612 17.615-15.646 4.017-7.03 6.026-14.563 6.026-22.6 0-5.099-.889-10.159-2.665-15.182-1.779-5.02-4.289-9.504-7.533-13.444s-7.184-7.145-11.822-9.619c-4.126-2.199-8.684-3.415-13.667-3.657V149.45h-23.146v24.264h-17.897V149.45h-23.146v24.264h-25.755v164.573h25.755v24.264h23.146v-24.264h17.897v24.264h23.146v-24.943a69.43 69.43 0 0 0 10.076-2.102c6.408-1.854 12.052-4.556 16.92-8.113 4.868-3.553 8.691-7.957 11.473-13.212 2.782-5.252 4.172-11.358 4.172-18.312-.001-10.815-2.746-19.819-8.229-27.005zm-92.369-67.799h44.04c5.1 0 9.389 1.854 12.866 5.563 3.477 3.708 5.214 8.732 5.214 15.067 0 6.49-1.895 11.589-5.68 15.298-3.787 3.708-8.384 5.563-13.792 5.563h-42.649v-41.491h.001zm66.756 97.121c-1.083 2.63-2.549 4.908-4.402 6.838-1.856 1.934-4.056 3.441-6.608 4.52-2.549 1.083-5.294 1.622-8.228 1.622h-47.517v-43.345h49.14c2.782 0 5.331.58 7.649 1.739a18.952 18.952 0 0 1 6.026 4.752c1.699 2.01 3.051 4.368 4.056 7.07a24.145 24.145 0 0 1 1.507 8.46c0 2.937-.543 5.718-1.623 8.344z" fill="#FFE047"/><path d="M322.36 268.86c-5.48-7.18-12.94-12.16-22.36-14.95 7.72-3.39 13.59-8.61 17.61-15.64s6.03-14.57 6.03-22.6c0-5.1-.89-10.16-2.67-15.18-1.78-5.02-4.29-9.51-7.53-13.45-3.25-3.94-7.19-7.14-11.82-9.62-4.13-2.2-8.69-3.41-13.67-3.66v-24.31H264.8v24.26H256v27.35h18.03c5.1 0 9.39 1.86 12.87 5.57 3.48 3.71 5.21 8.73 5.21 15.06 0 6.49-1.89 11.59-5.68 15.3-3.78 3.71-8.38 5.57-13.79 5.57H256v25.26h23.13c2.79 0 5.33.58 7.65 1.74s4.33 2.75 6.03 4.75c1.7 2.01 3.05 4.37 4.05 7.07 1.01 2.71 1.51 5.53 1.51 8.46 0 2.94-.54 5.72-1.62 8.35s-2.55 4.9-4.4 6.83a19.504 19.504 0 0 1-6.61 4.52c-2.55 1.09-5.3 1.63-8.23 1.63H256v27.12h8.8v24.26h23.15v-24.94a70.08 70.08 0 0 0 10.08-2.11c6.4-1.85 12.05-4.55 16.92-8.11 4.86-3.55 8.69-7.95 11.47-13.21 2.78-5.25 4.17-11.36 4.17-18.31 0-10.82-2.75-19.82-8.23-27.01z" fill="#FFAA20"/><path d="m94.896 257.651 33.902-52.797h-20.853c21.527-62.048 81.192-105.478 148.054-105.478 72.832 0 137.132 51.529 152.892 122.525l21.843-4.849c-8.685-39.127-30.696-74.666-61.977-100.072C337.012 91.198 296.967 77 255.998 77s-81.014 14.198-112.758 39.979c-27.996 22.737-48.559 53.595-58.796 87.874h-23.45l33.902 52.798z" fill="#FFF"/><path style="fill:#a8a4e5" d="m430.736 217.047-21.846 4.851c-15.764-70.99-80.062-122.523-152.892-122.523V77c40.967 0 81.018 14.198 112.76 39.98 31.274 25.406 53.293 60.941 61.978 100.067z" fill="#00E8F2"/><path d="M451.002 307.147 417.1 254.349l-33.901 52.797h20.853c-21.527 62.048-81.192 105.478-148.054 105.478-72.832 0-137.132-51.529-152.893-122.525l-21.843 4.849c8.685 39.127 30.696 74.666 61.977 100.072 31.745 25.782 71.79 39.98 112.759 39.98s81.014-14.198 112.758-39.979c27.996-22.737 48.559-53.595 58.796-87.874h23.45z" fill="#FFF"/><path style="fill:#a8a4e5" d="M451.006 307.147h-23.453c-10.242 34.274-30.796 65.132-58.795 87.873-31.742 25.782-71.794 39.98-112.76 39.98v-22.375c66.861 0 126.53-43.428 148.051-105.478H383.2l33.898-52.795 33.908 52.795z" fill="#00E8F2"/></svg>